<svg width="220" height="58" viewBox="0 0 220 58" fill="none" xmlns="http://www.w3.org/2000/svg">
<path d="M79.8513 40.0865C79.5765 40.0865 79.341 39.9785 79.1447 39.7626C78.9288 39.5663 78.8208 39.3307 78.8208 39.0559V12.2628C78.8208 11.9684 78.9288 11.723 79.1447 11.5267C79.341 11.3304 79.5765 11.2323 79.8513 11.2323H85.6221C85.9362 11.2323 86.1816 11.3304 86.3582 11.5267C86.5545 11.723 86.6526 11.9684 86.6526 12.2628V33.609H99.0187C99.3328 33.609 99.5879 33.7169 99.7842 33.9329C100 34.1292 100.108 34.3843 100.108 34.6984V39.0559C100.108 39.3504 100 39.5957 99.7842 39.792C99.5879 39.9883 99.3328 40.0865 99.0187 40.0865H79.8513ZM104.142 15.6782C103.828 15.6782 103.582 15.5801 103.406 15.3838C103.209 15.1679 103.111 14.9127 103.111 14.6183V10.7907C103.111 10.4766 103.209 10.2214 103.406 10.0251C103.622 9.80923 103.867 9.70127 104.142 9.70127H109.294C109.589 9.70127 109.844 9.80923 110.06 10.0251C110.256 10.2214 110.354 10.4766 110.354 10.7907V14.6183C110.354 14.9127 110.256 15.1679 110.06 15.3838C109.844 15.5801 109.589 15.6782 109.294 15.6782H104.142ZM104.142 40.0865C103.867 40.0865 103.622 39.9785 103.406 39.7626C103.209 39.5663 103.111 39.3307 103.111 39.0559V19.6824C103.111 19.388 103.209 19.1427 103.406 18.9464C103.622 18.7501 103.867 18.6519 104.142 18.6519H109.294C109.589 18.6519 109.844 18.7501 110.06 18.9464C110.256 19.1427 110.354 19.388 110.354 19.6824V39.0559C110.354 39.3504 110.256 39.5957 110.06 39.792C109.844 39.9883 109.589 40.0865 109.294 40.0865H104.142ZM130.14 47.9183C129.846 47.9183 129.59 47.8201 129.374 47.6239C129.178 47.4276 129.08 47.1822 129.08 46.8878V37.7899C127.765 39.5957 125.782 40.4987 123.133 40.4987C120.463 40.4987 118.363 39.6448 116.832 37.9371C115.301 36.2294 114.476 33.8936 114.359 30.9297L114.329 29.3692L114.359 27.8382C114.476 24.7565 115.291 22.3912 116.802 20.7424C118.333 19.074 120.443 18.2397 123.133 18.2397C124.565 18.2397 125.812 18.5047 126.872 19.0347C127.932 19.545 128.805 20.2517 129.492 21.1546V19.6824C129.492 19.388 129.59 19.1427 129.787 18.9464C130.003 18.7501 130.258 18.6519 130.552 18.6519H135.469C135.764 18.6519 136.009 18.7501 136.205 18.9464C136.402 19.1427 136.5 19.388 136.5 19.6824V46.8878C136.5 47.1822 136.402 47.4276 136.205 47.6239C136.009 47.8201 135.764 47.9183 135.469 47.9183H130.14ZM125.488 34.7573C126.646 34.7573 127.52 34.4138 128.108 33.7268C128.697 33.0201 129.021 32.127 129.08 31.0474C129.139 30.3408 129.168 29.8403 129.168 29.5459C129.168 29.2122 129.139 28.6822 129.08 27.9559C129.021 26.7782 128.707 25.8164 128.138 25.0705C127.588 24.3443 126.705 23.9811 125.488 23.9811C124.251 23.9811 123.368 24.3443 122.838 25.0705C122.328 25.7968 122.033 26.8077 121.955 28.1031C121.916 28.378 121.896 28.8 121.896 29.3692C121.896 29.9384 121.916 30.3604 121.955 30.6352C122.033 31.9307 122.328 32.9416 122.838 33.6679C123.368 34.3941 124.251 34.7573 125.488 34.7573ZM149.072 40.4987C146.657 40.4987 144.704 39.6841 143.213 38.0549C141.721 36.4453 140.975 34.1586 140.975 31.1947V19.6824C140.975 19.388 141.083 19.1427 141.299 18.9464C141.495 18.7501 141.731 18.6519 142.005 18.6519H147.511C147.806 18.6519 148.061 18.7501 148.277 18.9464C148.473 19.1427 148.571 19.388 148.571 19.6824V30.9297C148.571 33.4814 149.71 34.7573 151.987 34.7573C153.086 34.7573 153.95 34.4236 154.578 33.7562C155.186 33.0888 155.49 32.1467 155.49 30.9297V19.6824C155.49 19.388 155.598 19.1427 155.814 18.9464C156.011 18.7501 156.266 18.6519 156.58 18.6519H161.997C162.311 18.6519 162.567 18.7501 162.763 18.9464C162.939 19.1427 163.028 19.388 163.028 19.6824V39.0559C163.028 39.3307 162.939 39.5663 162.763 39.7626C162.567 39.9785 162.311 40.0865 161.997 40.0865H156.992C156.678 40.0865 156.423 39.9883 156.226 39.792C156.011 39.5957 155.903 39.3504 155.903 39.0559V37.4955C154.47 39.4976 152.193 40.4987 149.072 40.4987ZM168.769 15.6782C168.475 15.6782 168.229 15.5801 168.033 15.3838C167.837 15.1679 167.739 14.9127 167.739 14.6183V10.7907C167.739 10.4766 167.837 10.2214 168.033 10.0251C168.249 9.80923 168.494 9.70127 168.769 9.70127H173.922C174.216 9.70127 174.471 9.80923 174.687 10.0251C174.884 10.2214 174.982 10.4766 174.982 10.7907V14.6183C174.982 14.9127 174.884 15.1679 174.687 15.3838C174.471 15.5801 174.216 15.6782 173.922 15.6782H168.769ZM168.769 40.0865C168.494 40.0865 168.249 39.9785 168.033 39.7626C167.837 39.5663 167.739 39.3307 167.739 39.0559V19.6824C167.739 19.388 167.837 19.1427 168.033 18.9464C168.249 18.7501 168.494 18.6519 168.769 18.6519H173.922C174.216 18.6519 174.471 18.7501 174.687 18.9464C174.884 19.1427 174.982 19.388 174.982 19.6824V39.0559C174.982 39.3504 174.884 39.5957 174.687 39.792C174.471 39.9883 174.216 40.0865 173.922 40.0865H168.769ZM183.226 40.0865C182.931 40.0865 182.686 39.9883 182.49 39.792C182.274 39.5957 182.166 39.3504 182.166 39.0559V24.2461H179.074C178.78 24.2461 178.525 24.1578 178.309 23.9811C178.112 23.7848 178.014 23.5297 178.014 23.2156V19.6824C178.014 19.388 178.112 19.1427 178.309 18.9464C178.525 18.7501 178.78 18.6519 179.074 18.6519H182.166V17.4153C182.166 14.6673 182.961 12.675 184.551 11.4384C186.141 10.2018 188.427 9.5835 191.411 9.5835H194.65C194.964 9.5835 195.219 9.68164 195.415 9.87793C195.631 10.0742 195.739 10.3196 195.739 10.614V14.1472C195.739 14.4612 195.631 14.7164 195.415 14.9127C195.219 15.0893 194.964 15.1777 194.65 15.1777H191.735C190.851 15.1777 190.223 15.3838 189.85 15.796C189.477 16.1885 189.291 16.797 189.291 17.6214V18.6519H194.237C194.551 18.6519 194.807 18.7501 195.003 18.9464C195.219 19.1427 195.327 19.388 195.327 19.6824V23.2156C195.327 23.5297 195.219 23.7848 195.003 23.9811C194.807 24.1578 194.551 24.2461 194.237 24.2461H189.291V39.0559C189.291 39.3307 189.193 39.5663 188.997 39.7626C188.82 39.9785 188.575 40.0865 188.26 40.0865H183.226ZM202.187 47.9183C201.951 47.9183 201.745 47.8398 201.569 47.6827C201.412 47.5061 201.333 47.3 201.333 47.0644C201.333 46.8682 201.363 46.6817 201.421 46.505L204.66 38.7615L196.769 20.0652C196.671 19.8297 196.622 19.6726 196.622 19.5941C196.681 19.3193 196.799 19.0936 196.976 18.9169C197.152 18.7403 197.368 18.6519 197.623 18.6519H202.54C203.11 18.6519 203.502 18.9366 203.718 19.5058L208.311 31.2241L212.993 19.5058C213.267 18.9366 213.68 18.6519 214.229 18.6519H219.087C219.342 18.6519 219.558 18.7403 219.735 18.9169C219.912 19.0936 220 19.2899 220 19.5058C220 19.7021 219.971 19.8885 219.912 20.0652L208.252 47.0644C207.977 47.6337 207.555 47.9183 206.986 47.9183H202.187Z" fill="white"/>
<path d="M3.56632 15.0813C4.71241 15.304 5.90006 15.0627 6.86833 14.4103C7.8366 13.7579 8.50629 12.7479 8.73028 11.602L8.733 11.6027C8.78452 11.3546 9.13502 10.3668 9.64552 9.76681C9.8984 9.45699 10.156 9.23801 10.4448 9.08751C10.7411 8.93971 11.0807 8.817 11.7506 8.81022C12.116 8.82175 12.4394 8.89226 13.2054 9.42852C14.3342 10.2082 15.8542 12.0298 17.8142 13.9606C18.8128 14.9193 19.9633 15.9179 21.4365 16.7382C22.8954 17.5558 24.7408 18.1599 26.7469 18.1524H26.8052C30.5482 18.1524 33.3637 17.2223 35.2497 15.4894C36.8497 14.023 37.3446 12.3179 37.4673 11.3858C37.6029 11.12 37.7663 10.8509 37.9514 10.6332C38.2056 10.3234 38.4632 10.1058 38.7527 9.95325C39.047 9.80614 39.3886 9.6841 40.0578 9.67733C40.4225 9.68885 40.7479 9.75868 41.512 10.2956C42.6408 11.0732 44.1614 12.8962 46.1221 14.8271C47.1207 15.7864 48.2725 16.7843 49.7451 17.6046C51.204 18.4236 53.0494 19.0263 55.0555 19.0195H55.1144C58.8574 19.0195 61.673 18.0894 63.559 16.3558C65.4613 14.6115 65.8071 12.5166 65.8146 11.8034C65.8384 11.2252 65.7481 10.6481 65.5488 10.1049C65.3495 9.56163 65.0451 9.06298 64.6531 8.6374C64.2611 8.21181 63.7891 7.86763 63.264 7.6245C62.7389 7.38137 62.1711 7.24407 61.593 7.22043C60.6891 7.18281 59.7956 7.4244 59.0339 7.91237C58.2721 8.40035 57.6791 9.11103 57.3354 9.94783C56.9673 10.061 56.2534 10.2068 55.0555 10.2054C54.6338 10.1939 54.2826 10.1071 53.5097 9.57156C52.3694 8.79395 50.8542 6.98789 48.9166 5.06589C47.9295 4.11269 46.7939 3.11678 45.3377 2.29307C43.895 1.47139 42.0598 0.857163 40.0591 0.865977C37.7683 0.855129 35.6626 1.49851 34.0376 2.50391C31.5773 4.02252 30.2343 6.10723 29.46 7.69838C29.2364 8.16428 29.0373 8.64153 28.8634 9.12818C28.4628 9.23123 27.7882 9.34174 26.7475 9.34038C26.3259 9.32886 25.9747 9.2414 25.2018 8.70717C24.0622 7.92888 22.5463 6.12214 20.6087 4.2015C19.6209 3.24627 18.486 2.25171 17.0291 1.42732C15.5871 0.605643 13.7512 -0.00790412 11.7512 0.000231307C9.45841 -0.0140057 7.35404 0.630049 5.72899 1.63477C3.2687 3.15271 1.925 5.23741 1.15078 6.82925C0.377911 8.44142 0.132492 9.66376 0.0809674 9.91461C-0.0294635 10.4827 -0.0269087 11.067 0.0884861 11.6341C0.203881 12.2012 0.429855 12.7401 0.753505 13.2198C1.07716 13.6996 1.49214 14.1109 1.97477 14.4303C2.45739 14.7497 2.99821 14.9709 3.56632 15.0813ZM3.56564 34.3222C4.71188 34.545 5.89969 34.3039 6.86827 33.6517C7.83684 32.9995 8.50702 31.9896 8.73164 30.8437H8.733C8.78452 30.5955 9.13502 29.6071 9.6462 29.0085C9.89908 28.6986 10.1567 28.481 10.4448 28.3291C10.7404 28.1827 11.0821 28.0586 11.7512 28.0525C12.116 28.0627 12.4407 28.1339 13.2061 28.6695C14.3336 29.4498 15.8549 31.2708 17.8148 33.2016C18.8141 34.1602 19.966 35.1568 21.4385 35.9778C22.8873 36.79 24.7171 37.392 26.7069 37.392H26.7482C30.521 37.4015 33.3556 36.472 35.2511 34.7297C36.849 33.2646 37.3453 31.5616 37.4687 30.6288C37.6015 30.36 37.7644 30.1071 37.9541 29.8749C38.2083 29.5651 38.466 29.3468 38.7554 29.1949C39.0497 29.0478 39.3914 28.9244 40.0605 28.919C40.4252 28.9285 40.7507 29.0003 41.5154 29.5373C42.6428 30.3149 44.1635 32.1365 46.1241 34.0673C47.1227 35.026 48.2746 36.0246 49.7471 36.8449C51.206 37.6632 53.0514 38.2666 55.0575 38.2591H55.1165C58.8594 38.2591 61.6736 37.329 63.5611 35.5968C65.4634 33.8531 65.8091 31.7569 65.8166 31.0443C65.8645 29.8768 65.4466 28.738 64.6549 27.8786C63.8632 27.0191 62.7625 26.5093 61.595 26.4614C60.6913 26.4239 59.798 26.6653 59.0363 27.153C58.2747 27.6407 57.6815 28.351 57.3374 29.1874C56.97 29.3007 56.2554 29.4464 55.0575 29.4451C54.6358 29.4335 54.2846 29.3468 53.5118 28.8112C52.3714 28.0329 50.8562 26.2282 48.9186 24.3062C47.9302 23.3516 46.796 22.3564 45.3397 21.5334C43.897 20.7117 42.0605 20.0975 40.0612 20.1049C37.7704 20.0947 35.6647 20.7388 34.0396 21.7435C31.5793 23.2621 30.2363 25.3462 29.4621 26.9366C29.2387 27.4025 29.0398 27.8798 28.8661 28.3664C28.4655 28.4695 27.7909 28.58 26.7496 28.5793C26.3293 28.5678 25.9774 28.4803 25.2045 27.9454C24.0642 27.1671 22.5483 25.3618 20.6107 23.4398C19.6223 22.4852 18.4881 21.49 17.0325 20.6663C15.5891 19.8459 13.7539 19.231 11.7533 19.2385C9.4618 19.229 7.35675 19.8724 5.73238 20.8771C3.27006 22.3944 1.92907 24.4791 1.15417 26.0709C0.380622 27.6831 0.13656 28.9054 0.0836792 29.1569C-0.0272406 29.7248 -0.0251389 30.3089 0.0898643 30.8759C0.204867 31.4429 0.430516 31.9817 0.753905 32.4614C1.07729 32.9411 1.49208 33.3524 1.97454 33.6717C2.45701 33.991 2.99768 34.2121 3.56564 34.3222ZM61.5923 45.7024C60.6885 45.6652 59.7952 45.907 59.0336 46.3949C58.2719 46.8829 57.6788 47.5933 57.3347 48.4298C56.9673 48.5423 56.2534 48.6894 55.0548 48.6881C54.6344 48.6752 54.2819 48.5891 53.5104 48.0542C52.3701 47.2752 50.8535 45.4698 48.9159 43.5471C47.9288 42.5926 46.7946 41.598 45.3384 40.7736C43.8957 39.952 42.0591 39.3384 40.0598 39.3452C37.7677 39.3357 35.6633 39.9798 34.0369 40.9845C31.5766 42.5024 30.2349 44.5871 29.4594 46.1776C29.2354 46.6441 29.036 47.1221 28.8621 47.6094C28.4614 47.7118 27.7875 47.8223 26.7475 47.8216C26.3272 47.8081 25.976 47.7227 25.2025 47.1878C24.0622 46.4095 22.547 44.6027 20.6087 42.6814C19.6209 41.7275 18.4867 40.7316 17.0305 39.9065C15.5878 39.0855 13.7519 38.4706 11.7512 38.4795C9.45976 38.4693 7.35472 39.1127 5.72899 40.1181C3.26802 41.636 1.92635 43.72 1.15213 45.3119C0.378589 46.9234 0.133848 48.1464 0.0816454 48.3972C-0.141396 49.5445 0.100434 50.7333 0.753936 51.7023C1.40744 52.6712 2.41908 53.3408 3.56632 53.5639C4.71248 53.7867 5.9002 53.5455 6.86867 52.8933C7.83714 52.2411 8.50718 51.2312 8.73164 50.0853L8.73435 50.086C8.78656 49.8372 9.13638 48.8494 9.6462 48.2487C9.89975 47.9389 10.1574 47.722 10.4462 47.5694C10.7418 47.4223 11.0821 47.2989 11.7512 47.2935C12.1153 47.3037 12.4407 47.3749 13.2054 47.9111C14.3342 48.6894 15.8556 50.5118 17.8148 52.4439C18.8135 53.4019 19.9646 54.4005 21.4378 55.2215C22.8975 56.0391 24.7422 56.6432 26.7475 56.6357H26.8065C30.5502 56.6357 33.3657 55.7055 35.2518 53.972C36.8497 52.5056 37.346 50.8006 37.4694 49.8691C37.602 49.6004 37.7649 49.3477 37.9548 49.1158C38.207 48.806 38.466 48.5877 38.7541 48.4359C39.0497 48.2887 39.39 48.1654 40.0605 48.1599C40.4252 48.1701 40.7493 48.2413 41.5147 48.7769C42.6421 49.5558 44.1628 51.3789 46.1234 53.3097C47.1221 54.2683 48.2739 55.2669 49.7464 56.0872C51.2054 56.9062 53.0508 57.5089 55.0568 57.5021H55.1158C58.8594 57.5021 61.6763 56.572 63.5617 54.8378C65.4627 53.0941 65.8098 50.9978 65.8173 50.2853C65.8639 49.1175 65.4451 47.979 64.653 47.1197C63.8608 46.2604 62.76 45.7507 61.5923 45.7024Z" fill="url(#paint0_linear_607_3807)"/>
<defs>
<linearGradient id="paint0_linear_607_3807" x1="-0.799543" y1="-0.312953" x2="58.8543" y2="27.5041" gradientUnits="userSpaceOnUse">
<stop stop-color="#288B58"/>
<stop offset="1" stop-color="#1522F1"/>
</linearGradient>
</defs>
</svg>
