<svg width="21" height="18" viewBox="0 0 21 18" fill="none" xmlns="http://www.w3.org/2000/svg">
<path d="M1 14.5352C1.96443 15.037 8.9457 18.8246 13.91 15.9054C18.8742 12.9862 18.6003 7.95685 18.6003 5.65224C19.05 4.76555 20 4.31478 20 1.91473C19.0669 2.72602 18.1394 3.00207 17.2175 2.74287C16.3144 1.44686 15.0718 0.873632 13.4897 1.02322C11.1167 1.24759 10.2485 3.43882 10.504 6.27374C6.84495 8.01525 3.97575 5.0113 2.49709 2.74287C2.00304 4.52937 1.52665 6.67417 2.49709 9.04683C3.14405 10.6286 4.69925 11.9658 7.1627 13.0586C4.66615 14.3321 2.61191 14.8243 1 14.5352Z" stroke="black" stroke-width="2" stroke-linejoin="round"/>
</svg>
